2014029_C4_05_grf
version=1
nRows=21
nColumns=19
inDegrees=no
endheader
time	ground_force_1_vx	ground_force_1_vy	ground_force_1_vz	ground_force_1_px	ground_force_1_py	ground_force_1_pz	ground_force_1_mx	ground_force_1_my	ground_force_1_mz	ground_force_2_vx	ground_force_2_vy	ground_force_2_vz	ground_force_2_px	ground_force_2_py	ground_force_2_pz	ground_force_2_mx	ground_force_2_my	ground_force_2_mz
      0.97000000	      0.00000000	      0.00000000	      0.00000000	      0.00000000	      0.00000000	      0.00000000	      0.00000000	      0.00000000	      0.00000000	    -33.05200487	    806.11549318	    -43.43541972	      0.82863204	     -0.00200000	     -0.15496477	      0.00000000	      0.61854582	      0.00000000
      0.97100000	      0.00000000	      0.00000000	      0.00000000	      0.00000000	      0.00000000	      0.00000000	      0.00000000	      0.00000000	      0.00000000	    -32.87705779	    805.21531403	    -43.41065437	      0.82917999	     -0.00200000	     -0.15489056	      0.00000000	      0.61425737	      0.00000000
      0.97200000	      0.00000000	      0.00000000	      0.00000000	      0.00000000	      0.00000000	      0.00000000	      0.00000000	      0.00000000	      0.00000000	    -32.70277381	    804.31751907	    -43.38553436	      0.82972959	     -0.00200000	     -0.15481637	      0.00000000	      0.60994464	      0.00000000
      0.97300000	      0.00000000	      0.00000000	      0.00000000	      0.00000000	      0.00000000	      0.00000000	      0.00000000	      0.00000000	      0.00000000	    -32.52911940	    803.42307687	    -43.35990716	      0.83028108	     -0.00200000	     -0.15474223	      0.00000000	      0.60561103	      0.00000000
      0.97400000	      0.00000000	      0.00000000	      0.00000000	      0.00000000	      0.00000000	      0.00000000	      0.00000000	      0.00000000	      0.00000000	    -32.35581517	    802.53168941	    -43.33382100	      0.83083390	     -0.00200000	     -0.15466819	     -0.00000000	      0.60126824	      0.00000000
      0.97500000	      0.00000000	      0.00000000	      0.00000000	      0.00000000	      0.00000000	      0.00000000	      0.00000000	      0.00000000	      0.00000000	    -32.18276612	    801.64454877	    -43.30709465	      0.83138818	     -0.00200000	     -0.15459431	      0.00000000	      0.59692460	     -0.00000000
      0.97600000	      0.00000000	      0.00000000	      0.00000000	      0.00000000	      0.00000000	      0.00000000	      0.00000000	      0.00000000	      0.00000000	    -32.00977296	    800.76113343	    -43.27980503	      0.83194347	     -0.00200000	     -0.15452061	     -0.00000000	      0.59258856	      0.00000000
      0.97700000	      0.00000000	      0.00000000	      0.00000000	      0.00000000	      0.00000000	      0.00000000	      0.00000000	      0.00000000	      0.00000000	    -31.83669038	    799.88285899	    -43.25175267	      0.83249980	     -0.00200000	     -0.15444718	      0.00000000	      0.58827479	      0.00000000
      0.97800000	      0.00000000	      0.00000000	      0.00000000	      0.00000000	      0.00000000	      0.00000000	      0.00000000	      0.00000000	      0.00000000	    -31.66339919	    799.00890589	    -43.22305359	      0.83305681	     -0.00200000	     -0.15437398	      0.00000000	      0.58398603	      0.00000000
      0.97900000	      0.00000000	      0.00000000	      0.00000000	      0.00000000	      0.00000000	      0.00000000	      0.00000000	      0.00000000	      0.00000000	    -31.48968332	    798.14080149	    -43.19350310	      0.83361446	     -0.00200000	     -0.15430112	     -0.00000000	      0.57973594	      0.00000000
      0.98000000	      0.00000000	      0.00000000	      0.00000000	      0.00000000	      0.00000000	      0.00000000	      0.00000000	      0.00000000	      0.00000000	    -31.31550178	    797.27776349	    -43.16324331	      0.83417245	     -0.00200000	     -0.15422859	      0.00000000	      0.57552205	      0.00000000
      0.98100000	      0.00000000	      0.00000000	      0.00000000	      0.00000000	      0.00000000	      0.00000000	      0.00000000	      0.00000000	      0.00000000	    -31.14059102	    796.42143101	    -43.13206300	      0.83473069	     -0.00200000	     -0.15415652	      0.00000000	      0.57135895	      0.00000000
      0.98200000	      0.00000000	      0.00000000	      0.00000000	      0.00000000	      0.00000000	      0.00000000	      0.00000000	      0.00000000	      0.00000000	    -30.96497245	    795.57076097	    -43.10012646	      0.83528894	     -0.00200000	     -0.15408484	      0.00000000	      0.56724067	     -0.00000000
      0.98300000	      0.00000000	      0.00000000	      0.00000000	      0.00000000	      0.00000000	      0.00000000	      0.00000000	      0.00000000	      0.00000000	    -30.78833688	    794.72757876	    -43.06722898	      0.83584704	     -0.00200000	     -0.15401371	      0.00000000	      0.56318269	      0.00000000
      0.98400000	      0.00000000	      0.00000000	      0.00000000	      0.00000000	      0.00000000	      0.00000000	      0.00000000	      0.00000000	      0.00000000	    -30.61078489	    793.89072955	    -43.03355701	      0.83640484	     -0.00200000	     -0.15394307	     -0.00000000	      0.55917586	     -0.00000000
      0.98500000	      0.00000000	      0.00000000	      0.00000000	      0.00000000	      0.00000000	      0.00000000	      0.00000000	      0.00000000	      0.00000000	    -30.43197468	    793.06218773	    -42.99890846	      0.83696209	     -0.00200000	     -0.15387309	      0.00000000	      0.55523501	      0.00000000
      0.98600000	      0.00000000	      0.00000000	      0.00000000	      0.00000000	      0.00000000	      0.00000000	      0.00000000	      0.00000000	      0.00000000	    -30.25207110	    792.24057496	    -42.96347760	      0.83751873	     -0.00200000	     -0.15380367	      0.00000000	      0.55134952	     -0.00000000
      0.98700000	      0.00000000	      0.00000000	      0.00000000	      0.00000000	      0.00000000	      0.00000000	      0.00000000	      0.00000000	      0.00000000	    -30.07069696	    791.42801464	    -42.92706754	      0.83807445	     -0.00200000	     -0.15373503	      0.00000000	      0.54753519	      0.00000000
      0.98800000	      0.00000000	      0.00000000	      0.00000000	      0.00000000	      0.00000000	      0.00000000	      0.00000000	      0.00000000	      0.00000000	    -29.88807298	    790.62290490	    -42.88986735	      0.83862929	     -0.00200000	     -0.15366702	      0.00000000	      0.54378113	      0.00000000
      0.98900000	      0.00000000	      0.00000000	      0.00000000	      0.00000000	      0.00000000	      0.00000000	      0.00000000	      0.00000000	      0.00000000	    -29.70380709	    789.82740641	    -42.85167884	      0.83918288	     -0.00200000	     -0.15359984	      0.00000000	      0.54010436	     -0.00000000
      0.99000000	      0.00000000	      0.00000000	      0.00000000	      0.00000000	      0.00000000	      0.00000000	      0.00000000	      0.00000000	      0.00000000	    -29.51816842	    789.03995454	    -42.81269237	      0.83973532	     -0.00200000	     -0.15353336	      0.00000000	      0.53649105	      0.00000000
